<?xml version="1.0" standalone="no"?>
<!DOCTYPE svg PUBLIC "-//W3C//DTD SVG 20010904//EN"
 "http://www.w3.org/TR/2001/REC-SVG-20010904/DTD/svg10.dtd">
<svg version="1.0" xmlns="http://www.w3.org/2000/svg"
 width="32.000000pt" height="32.000000pt" viewBox="0 0 32.000000 32.000000"
 preserveAspectRatio="xMidYMid meet">

<g transform="translate(0.000000,32.000000) scale(0.100000,-0.100000)"
fill="#FFF" stroke="none">
<path d="M20 260 c-17 -17 -20 -33 -20 -100 0 -116 6 -120 160 -120 154 0 160
4 160 120 0 116 -6 120 -160 120 -107 0 -122 -2 -140 -20z m270 -19 c13 -25
13 -137 0 -162 -10 -17 -22 -19 -130 -19 -139 0 -140 1 -140 100 0 99 1 100
140 100 108 0 120 -2 130 -19z"/>
<path d="M120 167 c0 -24 3 -46 6 -50 10 -9 84 32 84 46 0 13 -59 47 -80 47
-6 0 -10 -19 -10 -43z m54 -14 c-26 -19 -34 -16 -34 12 0 23 2 24 26 13 24
-11 25 -13 8 -25z"/>
</g>
</svg>
