<?xml version="1.0" standalone="no"?>
<!DOCTYPE svg PUBLIC "-//W3C//DTD SVG 20010904//EN"
 "http://www.w3.org/TR/2001/REC-SVG-20010904/DTD/svg10.dtd">
<svg  version="1.0" xmlns="http://www.w3.org/2000/svg"
 width="2000.000000pt" height="538.000000pt" viewBox="0 0 2000.000000 538.000000"
 preserveAspectRatio="xMidYMid meet">

<g transform="translate(0.000000,538.000000) scale(0.100000,-0.100000)"
fill="#000000" stroke="none">
<path fill='white' d="M1805 5124 c-119 -25 -208 -69 -279 -139 -107 -104 -150 -218 -144
-378 3 -96 6 -107 45 -188 85 -174 252 -279 443 -279 311 0 550 288 487 586
-42 196 -192 349 -384 389 -66 14 -127 17 -168 9z m97 -241 c2 -20 10 -29 34
-35 41 -10 73 -47 76 -88 l3 -35 -62 -3 -62 -3 -3 33 c-4 40 -33 51 -43 17 -9
-27 9 -44 104 -101 70 -43 85 -69 78 -141 -5 -58 -34 -93 -89 -107 -33 -9 -38
-15 -38 -40 0 -27 -3 -30 -30 -30 -27 0 -30 3 -30 30 0 20 -6 33 -17 36 -79
26 -98 45 -109 113 l-7 41 66 0 66 0 3 -42 c2 -35 7 -43 23 -43 14 0 21 8 23
27 5 41 -13 64 -76 101 -100 59 -130 136 -74 198 16 17 42 34 62 38 28 5 36
12 38 34 3 22 8 27 32 27 24 0 29 -5 32 -27z"/>
<path fill='white' d="M3368 4901 c-74 -30 -140 -84 -177 -146 -115 -189 -44 -423 155 -517
80 -37 189 -41 277 -8 79 30 156 102 193 182 25 55 29 75 29 153 0 82 -3 97
-33 157 -36 74 -92 129 -168 168 -67 33 -207 39 -276 11z m152 -156 c5 -14 15
-25 22 -25 21 0 58 -43 58 -67 0 -22 -3 -24 -47 -21 -41 3 -48 6 -51 26 -4 27
-27 24 -27 -3 0 -12 20 -31 54 -51 30 -18 61 -43 68 -56 27 -50 8 -108 -42
-132 -18 -9 -35 -25 -38 -36 -7 -27 -47 -27 -47 0 0 13 -12 25 -34 34 -38 16
-56 42 -56 80 0 24 3 26 44 26 43 0 45 -1 48 -32 4 -42 22 -43 26 -1 3 29 -2
35 -48 64 -56 34 -70 54 -70 96 1 36 21 62 57 72 18 5 29 15 31 29 5 31 40 29
52 -3z"/>
<path fill='white' d="M2654 4524 c-36 -17 -140 -151 -214 -274 -145 -241 -320 -655 -401
-952 -13 -49 -26 -88 -29 -88 -15 0 -154 114 -215 176 -96 98 -176 212 -248
356 -74 145 -97 167 -155 150 -80 -24 -81 -108 -3 -289 66 -152 111 -225 218
-358 77 -95 178 -191 311 -295 l32 -25 -35 -187 c-43 -234 -86 -558 -87 -663
-2 -125 45 -210 151 -272 51 -31 161 -42 227 -24 82 22 173 111 194 190 5 20
11 212 14 426 2 215 9 451 16 525 9 117 48 431 53 436 1 1 40 10 87 19 345 70
672 216 968 433 107 78 125 140 60 199 -38 35 -83 23 -209 -54 -181 -111 -326
-179 -504 -237 -91 -30 -325 -80 -333 -71 -9 8 45 178 95 300 46 115 99 218
174 344 47 81 54 123 29 176 -33 66 -125 94 -196 59z"/>
<path fill='white' d="M10418 4390 c-205 -33 -361 -184 -419 -409 -29 -110 -36 -284 -15
-394 58 -306 226 -467 505 -484 356 -21 575 166 622 532 30 234 -35 474 -165
607 -101 103 -204 146 -368 153 -57 2 -129 0 -160 -5z m227 -159 c117 -53 170
-207 168 -496 -2 -315 -64 -453 -219 -485 -133 -28 -241 38 -282 172 -33 106
-45 228 -39 383 11 263 69 400 185 435 49 15 145 11 187 -9z"/>
<path fill='white' d="M5337 4374 c-4 -4 -7 -288 -7 -631 l0 -624 138 3 137 3 3 252 2 252
30 21 c17 12 35 20 41 18 6 -2 84 -125 173 -273 l161 -270 168 -3 c121 -2 167
1 167 9 0 6 -100 174 -222 373 -122 198 -222 369 -222 378 -1 10 79 121 177
247 97 126 177 235 177 241 0 7 -30 10 -92 8 l-92 -3 -172 -235 c-120 -163
-191 -250 -231 -283 l-58 -48 -5 283 -5 283 -131 3 c-71 1 -133 -1 -137 -4z"/>
<path fill='white' d="M6798 3758 c-115 -343 -208 -627 -208 -631 0 -4 37 -7 83 -5 l82 3
56 170 57 170 215 3 215 2 32 -102 c17 -57 41 -134 54 -173 l23 -70 141 -3
c97 -2 142 1 142 8 0 9 -330 1079 -372 1205 l-13 40 -150 3 -150 2 -207 -622z
m416 0 c24 -81 41 -150 38 -153 -3 -3 -79 -5 -169 -5 -141 0 -163 2 -163 16 0
12 142 476 166 544 3 8 24 -46 46 -120 21 -74 58 -201 82 -282z"/>
<path fill='white' d="M8037 4374 c-4 -4 -7 -288 -7 -631 l0 -623 134 0 c113 0 135 2 140
16 3 9 6 123 6 254 l0 239 29 20 c16 12 34 21 39 21 5 0 83 -124 173 -275
l164 -275 168 0 c113 0 167 3 167 11 0 6 -100 173 -221 371 -122 198 -223 368
-225 377 -3 9 68 109 176 248 99 128 180 237 180 243 0 7 -32 10 -92 8 l-92
-3 -177 -240 c-122 -165 -194 -253 -231 -283 l-53 -42 -5 282 -5 283 -131 3
c-71 1 -133 -1 -137 -4z"/>
<path  fill='white' d="M11370 4310 l0 -70 158 0 c110 0 162 -4 170 -12 9 -9 12 -147 12
-560 l0 -549 133 3 132 3 5 555 5 555 163 3 162 2 0 70 0 70 -470 0 -470 0 0
-70z"/>
<path fill='white' d="M12645 4368 c-3 -7 -4 -290 -3 -628 l3 -615 135 0 135 0 3 252 2 252
30 21 c17 12 35 20 41 18 7 -2 84 -125 173 -273 l161 -270 173 -3 c94 -1 172
0 172 2 0 3 -102 171 -227 373 -124 202 -228 375 -230 383 -2 8 80 121 181
250 101 129 182 238 179 243 -2 4 -44 7 -93 7 l-88 0 -185 -249 c-132 -178
-199 -260 -234 -285 l-48 -35 -5 282 -5 282 -133 3 c-100 2 -134 -1 -137 -10z"/>
<path fill='white' d="M14010 3750 l0 -630 135 0 135 0 2 193 3 192 110 6 c61 4 128 12 150
19 123 37 235 133 276 238 31 76 34 278 6 357 -42 119 -136 200 -271 235 -68
17 -111 20 -313 20 l-233 0 0 -630z m455 472 c44 -27 72 -84 85 -180 14 -94 8
-203 -16 -281 -24 -82 -98 -126 -202 -119 l-47 3 -3 290 c-1 159 0 296 3 304
8 19 138 7 180 -17z"/>
<path fill='white' d="M15200 3750 l0 -630 228 0 c254 0 328 11 428 60 73 36 127 92 162
168 37 81 43 233 13 313 -40 106 -128 178 -262 215 -30 8 -109 18 -176 21
l-123 6 0 238 0 239 -135 0 -135 0 0 -630z m482 -8 c51 -32 79 -94 85 -190 6
-91 -9 -177 -40 -224 -33 -49 -82 -69 -174 -71 l-78 -2 -3 259 -2 258 88 -4
c69 -3 96 -9 124 -26z"/>
<path fill='white' d="M16190 3750 l0 -630 135 0 135 0 -2 628 -3 627 -132 3 -133 3 0 -631z"/>
<path fill='white' d="M16790 4310 l0 -70 168 -2 167 -3 3 -557 2 -558 135 0 135 0 2 558 3
557 168 3 168 2 -3 68 -3 67 -472 3 -473 2 0 -70z"/>
<path fill='white' d="M18065 4368 c-3 -7 -4 -290 -3 -628 l3 -615 255 0 c235 0 260 2 325
22 169 53 258 166 272 342 19 255 -135 394 -454 408 l-123 6 -2 236 -3 236
-133 3 c-100 2 -134 -1 -137 -10z m438 -609 c61 -17 104 -64 122 -134 19 -75
19 -145 0 -219 -29 -110 -72 -143 -205 -153 l-80 -6 0 262 0 261 63 0 c34 0
79 -5 100 -11z"/>
<path fill='white' d="M795 3643 c-137 -16 -241 -77 -322 -186 -61 -84 -86 -171 -81 -289 3
-82 7 -102 39 -168 77 -162 231 -260 409 -260 178 0 330 97 409 260 32 67 36
85 39 172 3 80 0 109 -18 163 -35 106 -123 211 -219 260 -68 35 -186 57 -256
48z m75 -223 c4 -15 14 -26 27 -28 35 -5 73 -47 73 -82 0 -30 0 -30 -55 -30
-41 0 -57 4 -60 15 -17 52 -14 50 -33 32 -24 -24 -10 -42 73 -93 50 -30 73
-51 83 -75 26 -63 -8 -138 -73 -159 -26 -8 -35 -17 -37 -38 -2 -21 -8 -27 -28
-27 -20 0 -26 6 -28 27 -2 19 -11 29 -35 37 -51 18 -77 49 -77 93 l0 38 54 0
55 0 3 -37 c4 -46 34 -59 43 -20 9 35 -9 63 -58 93 -95 59 -120 104 -94 166
14 32 28 42 90 62 10 3 17 15 17 31 0 23 4 26 27 23 20 -2 29 -10 33 -28z"/>
<path fill='white' d="M3855 3644 c-169 -41 -254 -83 -344 -174 -74 -74 -131 -175 -157
-280 -24 -94 -15 -252 18 -342 69 -184 214 -318 404 -374 92 -27 238 -23 339
10 186 60 335 213 391 401 29 95 25 260 -8 352 -33 93 -65 148 -128 216 -103
113 -258 185 -415 192 -44 2 -89 2 -100 -1z m113 -290 c2 -25 9 -33 30 -37 51
-11 90 -44 103 -86 19 -64 11 -72 -73 -69 l-73 3 -5 35 c-4 27 -10 35 -25 35
-16 0 -20 -7 -20 -35 0 -33 4 -37 80 -82 115 -68 135 -93 135 -169 0 -93 -30
-131 -132 -163 -10 -3 -18 -18 -20 -38 -3 -29 -7 -33 -35 -36 -30 -3 -32 -1
-35 34 -3 34 -7 39 -38 47 -75 19 -120 76 -120 152 l0 36 78 -3 77 -3 3 -52
c3 -49 5 -53 28 -53 24 0 25 2 22 52 -3 58 6 49 -133 135 -43 27 -75 79 -75
124 0 72 32 110 115 134 35 11 40 16 43 44 3 30 6 32 35 29 28 -3 32 -7 35
-34z"/>
<path fill='white' d="M9412 2204 c-142 -31 -271 -133 -336 -265 -60 -123 -71 -181 -71
-374 0 -189 14 -258 78 -380 109 -205 350 -302 622 -250 201 38 340 170 407
385 20 66 23 95 23 245 0 189 -11 250 -67 365 -41 85 -151 196 -231 234 -116
54 -287 70 -425 40z m265 -155 c112 -54 163 -204 163 -480 0 -350 -81 -502
-270 -503 -193 -1 -269 142 -270 505 0 349 78 498 264 499 51 0 81 -6 113 -21z"/>
<path fill='white' d="M12224 2205 c-186 -40 -320 -174 -386 -385 -20 -66 -23 -95 -23 -245
0 -193 8 -239 66 -363 105 -227 346 -332 634 -277 112 21 193 65 268 144 79
84 112 146 143 267 29 117 33 291 9 412 -47 234 -204 403 -415 448 -81 17
-215 17 -296 -1z m284 -168 c87 -57 130 -182 139 -402 11 -248 -24 -421 -101
-500 -107 -112 -305 -87 -373 46 -42 81 -54 146 -60 324 -11 324 34 479 156
546 29 15 52 19 117 17 69 -3 87 -7 122 -31z"/>
<path fill='white' d="M5637 2193 c-6 -10 -409 -1225 -411 -1238 -2 -16 149 -18 161 -3 6 7
34 86 62 176 l52 162 216 -2 216 -3 13 -40 c7 -22 31 -100 54 -172 l41 -133
139 0 c124 0 140 2 140 17 0 9 -79 271 -176 582 -97 311 -183 587 -190 614
l-15 47 -149 0 c-82 0 -151 -3 -153 -7z m177 -500 c42 -144 76 -265 76 -268 0
-3 -76 -5 -170 -5 -113 0 -170 4 -170 11 0 8 148 489 166 539 5 13 6 13 14 0
4 -8 42 -133 84 -277z"/>
<path fill='white' d="M6665 2188 c-3 -7 -4 -290 -3 -628 l3 -615 235 -3 c257 -3 348 8 447
53 250 113 273 449 38 571 -30 16 -55 32 -55 35 0 3 20 19 45 37 82 58 136
181 120 271 -25 141 -133 243 -294 277 -89 19 -529 20 -536 2z m483 -150 c58
-39 77 -86 77 -188 -1 -98 -19 -147 -69 -183 -26 -19 -44 -22 -121 -22 l-90 0
-3 214 -2 214 84 -5 c70 -4 91 -9 124 -30z m48 -544 c55 -40 69 -70 72 -153 5
-95 -10 -151 -51 -198 -42 -48 -79 -62 -187 -70 l-90 -6 0 227 0 228 114 -4
c97 -2 119 -6 142 -24z"/>
<path fill='white' d="M7800 2130 l0 -70 168 -2 167 -3 3 -557 2 -558 135 0 135 0 2 558 3
557 168 3 168 2 -3 68 -3 67 -472 3 -473 2 0 -70z"/>
<path fill='white' d="M10747 2193 c-4 -3 -7 -79 -7 -167 0 -182 -22 -474 -44 -586 -33
-166 -85 -277 -147 -314 -15 -9 -49 -16 -78 -16 l-51 0 -2 -70 c-1 -38 -2 -78
-2 -87 -1 -27 81 -39 152 -23 197 44 311 368 331 940 l6 185 125 0 125 0 5
-555 5 -555 135 0 135 0 0 625 0 625 -341 3 c-187 1 -343 -1 -347 -5z"/>
<path fill='white' d="M13336 1813 c-3 -214 -7 -496 -8 -628 l-3 -240 85 0 85 0 5 460 c3
253 8 456 11 450 6 -8 102 -268 318 -860 l19 -50 100 -3 c88 -2 102 0 110 15
6 10 67 173 137 363 69 190 142 389 162 443 20 53 39 95 42 91 3 -3 8 -209 11
-457 l5 -452 133 -3 132 -3 0 404 c0 222 -3 506 -7 630 l-6 227 -151 0 -151 0
-170 -455 c-93 -250 -172 -455 -175 -455 -3 0 -46 105 -95 233 -48 127 -126
332 -173 455 l-84 222 -163 0 -163 0 -6 -387z"/>
<path fill='white' d="M15135 2188 c-3 -7 -4 -290 -3 -628 l3 -615 215 -3 c245 -3 334 9
437 59 76 37 144 109 174 187 17 44 22 79 23 157 1 94 -1 105 -32 167 -20 41
-47 79 -71 98 -89 70 -230 110 -387 110 l-84 0 2 168 3 167 215 5 215 5 0 65
0 65 -353 3 c-277 2 -354 0 -357 -10z m446 -609 c48 -17 94 -63 109 -112 7
-23 12 -83 12 -134 0 -91 -12 -148 -39 -190 -23 -34 -91 -61 -175 -68 l-78 -7
0 261 0 261 69 0 c37 0 83 -5 102 -11z"/>
<path fill='white' d="M16458 1578 c-114 -341 -205 -625 -202 -630 9 -13 152 -10 161 5 4 6
31 85 61 175 l53 162 214 0 214 0 46 -147 c26 -82 50 -159 54 -173 8 -25 8
-25 149 -28 113 -2 142 0 142 11 0 7 -66 224 -146 483 -80 258 -164 530 -187
604 -22 74 -45 141 -50 148 -7 8 -50 12 -156 12 l-146 0 -207 -622z m400 62
c33 -113 58 -208 55 -212 -2 -5 -78 -8 -169 -8 -138 0 -164 2 -164 15 0 12 81
276 152 495 l21 65 23 -75 c12 -41 49 -167 82 -280z"/>
<path fill='white' d="M17695 2188 c-3 -7 -4 -290 -3 -628 l3 -615 135 0 135 0 3 193 2 192
80 0 c105 0 170 14 257 57 86 42 153 108 191 191 25 53 27 66 27 197 0 133 -1
143 -29 202 -50 108 -146 181 -275 209 -89 19 -519 20 -526 2z m431 -137 c86
-39 108 -99 109 -291 0 -107 -4 -145 -18 -182 -31 -80 -95 -118 -199 -118
l-48 0 0 305 0 305 58 0 c34 0 74 -8 98 -19z"/>
<path fill='white' d="M18976 2184 c-3 -8 -6 -105 -6 -213 0 -332 -41 -632 -110 -806 l-28
-70 -63 -5 -64 -5 3 -165 c2 -91 6 -199 10 -240 l7 -75 59 -3 c32 -2 63 1 69
7 6 6 26 81 46 168 l36 158 341 3 341 2 17 -147 c24 -201 20 -193 106 -193 48
0 72 4 75 13 9 25 46 449 41 463 -4 10 -24 14 -76 14 l-70 0 -2 553 -3 552
-361 3 c-323 2 -362 1 -368 -14z m454 -609 l0 -485 -215 0 c-118 0 -215 2
-215 5 0 2 9 27 20 56 63 158 97 361 111 659 6 124 12 231 14 238 3 9 41 12
145 12 l140 0 0 -485z"/>
<path fill='white' d="M3076 1835 c-63 -18 -118 -46 -241 -127 -199 -130 -230 -138 -567
-138 -238 0 -430 -12 -495 -29 -94 -26 -153 -100 -153 -194 0 -191 262 -276
790 -256 91 4 206 9 255 13 l90 7 -35 -19 c-142 -79 -478 -152 -695 -152 -165
0 -366 43 -478 102 -163 87 -198 243 -98 443 22 44 35 82 30 83 -645 229 -642
228 -672 194 -19 -21 -21 -49 -7 -88 6 -15 9 -28 7 -30 -1 -2 -48 15 -102 38
-82 34 -112 41 -168 42 -62 1 -71 -2 -89 -24 -17 -21 -20 -35 -15 -92 2 -38 4
-68 3 -68 0 0 -33 7 -71 15 -234 49 -325 -29 -212 -183 44 -59 357 -367 495
-486 150 -131 299 -245 457 -351 406 -272 730 -385 1100 -385 238 0 360 29
635 153 85 38 180 78 210 89 81 29 262 35 420 14 117 -15 428 -80 532 -111 25
-7 49 -11 52 -8 3 4 6 255 6 560 l0 553 -67 50 c-38 27 -133 87 -213 134 -418
243 -555 292 -704 251z"/>
</g>
</svg>
