<?xml version="1.0" standalone="no"?>
<!DOCTYPE svg PUBLIC "-//W3C//DTD SVG 20010904//EN"
 "http://www.w3.org/TR/2001/REC-SVG-20010904/DTD/svg10.dtd">
<svg version="1.0" xmlns="http://www.w3.org/2000/svg"
 width="24.000000pt" height="24.000000pt" viewBox="0 0 24.000000 24.000000"
 preserveAspectRatio="xMidYMid meet">

<g transform="translate(0.000000,24.000000) scale(0.100000,-0.100000)"
fill="#fff" stroke="none">
<path fill="#fff"  d="M82 224 c-45 -31 -17 -104 40 -104 53 0 79 74 36 104 -12 9 -29 16
-38 16 -9 0 -26 -7 -38 -16z m56 -23 c23 -14 10 -46 -18 -46 -16 0 -26 6 -28
19 -3 16 12 36 28 36 3 0 11 -4 18 -9z"/>
<path fill="#fff" d="M50 106 c0 -9 12 -21 26 -27 l27 -10 -22 -22 c-20 -22 -28 -47 -15
-47 3 0 17 9 32 20 l25 20 22 -20 c39 -37 51 -13 14 27 l-22 22 27 10 c14 6
26 18 26 27 0 12 -5 14 -17 8 -23 -10 -83 -10 -105 0 -13 6 -18 4 -18 -8z"/>
</g>
</svg>
