<?xml version="1.0" standalone="no"?>
<!DOCTYPE svg PUBLIC "-//W3C//DTD SVG 20010904//EN"
 "http://www.w3.org/TR/2001/REC-SVG-20010904/DTD/svg10.dtd">
<svg version="1.0" xmlns="http://www.w3.org/2000/svg"
 width="24.000000pt" height="24.000000pt" viewBox="0 0 24.000000 24.000000"
 preserveAspectRatio="xMidYMid meet">

<g transform="translate(0.000000,24.000000) scale(0.100000,-0.100000)"
fill="#FFF" stroke="none">
<path fill="#FFF"  d="M10 170 c0 -18 49 -89 69 -100 29 -15 61 -12 61 5 0 19 14 19 30 0 7
-8 23 -15 37 -15 24 0 24 0 7 29 -16 27 -16 30 0 52 21 31 20 39 -4 39 -12 0
-26 -12 -35 -30 -20 -38 -35 -38 -35 0 0 25 -4 30 -23 30 -18 0 -23 -5 -22
-27 0 -37 -20 -39 -35 -3 -12 28 -50 44 -50 20z"/>
</g>
</svg>
