<?xml version="1.0" encoding="UTF-8" standalone="no" ?>
<!DOCTYPE svg PUBLIC "-//W3C//DTD SVG 1.1//EN" "http://www.w3.org/Graphics/SVG/1.1/DTD/svg11.dtd">
<svg xmlns="http://www.w3.org/2000/svg" xmlns:xlink="http://www.w3.org/1999/xlink" version="1.1" width="500" height="500" viewBox="0 0 500 500" xml:space="preserve">
<desc>Created with Fabric.js 3.6.3</desc>
<defs>
</defs>
<g transform="matrix(1,0,0,1,299.32270436080375,250.92575741999667)" style=""  ><path fill="#000000" opacity="1" d="M-99.68-6.67L-97.66-6.67L-97.66-13.03L-95.66-14.71L-89.81-6.67L-87.28-6.67L-94.17-16.25L-88.11-23.96L-89.73-23.96L-95.55-16.41L-97.66-14.55L-97.66-23.96L-99.68-23.96Z"/><path fill="#000000" opacity="1" d="M-76.75-22.42L-73.74-13.08L-79.81-13.08ZM-77.57-23.96L-83.40-6.67L-81.99-6.67L-80.18-11.99L-73.40-11.99L-71.59-6.67L-69.49-6.67L-75.20-23.96Z"/><path fill="#000000" opacity="1" d="M-64.19-6.67L-62.17-6.67L-62.17-13.03L-60.18-14.71L-54.32-6.67L-51.80-6.67L-58.69-16.25L-52.62-23.96L-54.24-23.96L-60.07-16.41L-62.17-14.55L-62.17-23.96L-64.19-23.96Z"/><path fill="#000000" opacity="1" d=""/><path fill="#000000" opacity="1" d="M-26.15-15.29C-26.15-10.32-28.04-7.68-31.45-7.68C-34.83-7.68-36.69-10.32-36.69-15.29C-36.69-20.24-34.80-22.93-31.45-22.93C-28.07-22.93-26.15-20.24-26.15-15.29ZM-24.00-15.29C-24.00-20.77-26.77-24.20-31.45-24.20C-36.10-24.20-38.84-20.77-38.84-15.29C-38.84-9.79-36.10-6.41-31.45-6.41C-26.77-6.41-24.00-9.79-24.00-15.29Z"/><path fill="#000000" opacity="1" d="M-8.44-23.96L-20.33-23.96L-20.33-22.69L-15.41-22.69L-15.41-6.67L-13.39-6.67L-13.39-22.69L-8.44-22.69Z"/><path fill="#000000" opacity="1" d="M-3.54-6.67L-1.52-6.67L-1.52-13.03L0.47-14.71L6.32-6.67L8.85-6.67L1.96-16.25L8.03-23.96L6.40-23.96L0.58-16.41L-1.52-14.55L-1.52-23.96L-3.54-23.96Z"/><path fill="#000000" opacity="1" d="M18.56-22.79C20.85-22.79 22.26-21.49 22.26-18.40C22.26-14.87 20.56-13.85 18.53-13.85L16.64-13.85L16.64-22.79ZM14.62-6.67L16.64-6.67L16.64-12.74L18.83-12.74C21.49-12.74 24.39-14.17 24.39-18.48C24.39-22.15 22.26-23.96 18.77-23.96L14.62-23.96Z"/><path fill="#000000" opacity="1" d="M45.16-23.96L43.14-23.96L43.14-6.67L45.16-6.67ZM34.09-15.88C36.83-15.88 38.40-14.73 38.40-11.97C38.40-9.17 36.99-7.84 34.15-7.84L32.05-7.84L32.05-15.88ZM30.02-6.67L34.20-6.67C38.38-6.67 40.45-8.67 40.45-12.02C40.45-15.40 38.03-16.99 34.09-16.99L32.05-16.99L32.05-23.96L30.02-23.96Z"/><path fill="#000000" opacity="1" d="M61.94-23.96L50.05-23.96L50.05-22.69L54.98-22.69L54.98-6.67L57.00-6.67L57.00-22.69L61.94-22.69Z"/><path fill="#000000" opacity="1" d="M70.91-15.88C73.65-15.88 75.22-14.73 75.22-11.97C75.22-9.17 73.81-7.84 70.96-7.84L68.86-7.84L68.86-15.88ZM66.84-6.67L71.02-6.67C75.19-6.67 77.27-8.67 77.27-12.02C77.27-15.40 74.85-16.99 70.91-16.99L68.86-16.99L68.86-23.96L66.84-23.96Z"/><path fill="#000000" opacity="1" d="M-94.92 7.64L-91.91 16.97L-97.97 16.97ZM-95.74 6.10L-101.57 23.39L-100.16 23.39L-98.35 18.07L-91.56 18.07L-89.76 23.39L-87.65 23.39L-93.37 6.10Z"/><path fill="#000000" opacity="1" d="M-80.34 13.92L-80.34 7.27L-78.08 7.27C-76.00 7.27-74.49 8.28-74.49 10.54C-74.49 13.22-76.30 13.92-77.20 13.92ZM-77.09 15.01C-75.18 15.01-73.72 16.02-73.72 18.41C-73.72 20.99-75.18 22.21-78.05 22.21L-80.34 22.21L-80.34 15.01ZM-82.36 23.39L-77.97 23.39C-73.69 23.39-71.72 21.55-71.72 18.49C-71.72 16.26-73.08 14.85-75.05 14.31C-73.82 13.68-72.54 12.48-72.54 10.40C-72.54 7.90-74.43 6.10-78.00 6.10L-82.36 6.10Z"/><path fill="#000000" opacity="1" d="M-56.16 6.10L-68.05 6.10L-68.05 7.37L-63.13 7.37L-63.13 23.39L-61.11 23.39L-61.11 7.37L-56.16 7.37Z"/><path fill="#000000" opacity="1" d="M-39.80 14.77C-39.80 19.74-41.69 22.37-45.09 22.37C-48.47 22.37-50.33 19.74-50.33 14.77C-50.33 9.82-48.45 7.13-45.09 7.13C-41.72 7.13-39.80 9.82-39.80 14.77ZM-37.65 14.77C-37.65 9.29-40.41 5.86-45.09 5.86C-49.75 5.86-52.49 9.29-52.49 14.77C-52.49 20.27-49.75 23.65-45.09 23.65C-40.41 23.65-37.65 20.27-37.65 14.77Z"/><path fill="#000000" opacity="1" d="M-29.11 6.10C-29.11 16.97-30.41 22.08-32.86 22.08C-33.23 22.08-33.52 21.98-33.52 21.98L-33.60 23.41C-33.60 23.41-33.28 23.57-32.51 23.57C-29.56 23.57-27.75 18.12-27.72 7.37L-22.67 7.37L-22.67 23.39L-20.67 23.39L-20.67 6.10Z"/><path fill="#000000" opacity="1" d="M-1.98 14.77C-1.98 19.74-3.86 22.37-7.27 22.37C-10.65 22.37-12.51 19.74-12.51 14.77C-12.51 9.82-10.62 7.13-7.27 7.13C-3.89 7.13-1.98 9.82-1.98 14.77ZM0.18 14.77C0.18 9.29-2.59 5.86-7.27 5.86C-11.92 5.86-14.66 9.29-14.66 14.77C-14.66 20.27-11.92 23.65-7.27 23.65C-2.59 23.65 0.18 20.27 0.18 14.77Z"/><path fill="#000000" opacity="1" d="M23.29 6.10L20.95 6.10L14.86 20.91L14.84 20.91L8.74 6.10L6.27 6.10L6.30 6.17L6.24 6.10L6.16 23.39L7.63 23.39L7.68 8.57L13.69 23.39L15.31 23.39L21.30 8.57L21.33 8.57L21.41 23.39L23.37 23.39Z"/><path fill="#000000" opacity="1" d="M34.60 14.18C37.37 14.18 38.96 15.27 38.96 18.09C38.96 20.94 37.53 22.21 34.65 22.21L32.60 22.21L32.60 14.18ZM39.31 6.10L30.58 6.10L30.58 23.39L34.73 23.39C38.91 23.39 41.01 21.39 41.01 18.04C41.01 14.66 38.56 13.06 34.60 13.06L32.60 13.06L32.60 7.37L39.31 7.37Z"/><path fill="#000000" opacity="1" d="M51.73 7.64L54.74 16.97L48.67 16.97ZM50.91 6.10L45.08 23.39L46.49 23.39L48.30 18.07L55.08 18.07L56.89 23.39L58.99 23.39L53.27 6.10Z"/><path fill="#000000" opacity="1" d="M68.22 7.27C70.51 7.27 71.92 8.57 71.92 11.65C71.92 15.19 70.22 16.20 68.20 16.20L66.31 16.20L66.31 7.27ZM64.29 23.39L66.31 23.39L66.31 17.32L68.49 17.32C71.15 17.32 74.05 15.88 74.05 11.57C74.05 7.90 71.92 6.10 68.44 6.10L64.29 6.10Z"/><path fill="#000000" opacity="1" d="M87.48 7.37L87.48 22.11L79.87 22.11C81.18 19.37 82.00 15.48 82.08 7.37ZM80.67 6.10C80.67 15.22 79.85 19.32 78.44 22.11L77.00 22.11L77.13 27.88L78.33 27.88L78.81 23.39L89.58 23.39L89.87 27.88L91.18 27.88L91.50 22.11L89.48 22.11L89.48 6.10Z"/></g><g transform="matrix(1.9786741582353962 0 0 1.9786741582353962 159.86775741999668 250.81466951647064)"  >
<g style=""   >
		<g transform="matrix(1 0 0 1 9.5855 -2.4510000000000005)"  >
<path style="stroke: none; stroke-width: 1; stroke-dasharray: none; stroke-linecap: butt; stroke-dashoffset: 0; stroke-linejoin: miter; stroke-miterlimit: 4; fill: rgb(0,0,0); fill-rule: nonzero; opacity: 1;"  transform=" translate(-25.5855, -13.549)" d="M 25.585 10.009 c -1.954 0 -3.539 1.585 -3.539 3.54 c 0 1.955 1.585 3.54 3.539 3.54 c 1.956 0 3.54 -1.584 3.54 -3.54 C 29.125 11.594 27.542 10.009 25.585 10.009 z M 26.497 14.836 c -0.156 0.159 -0.391 0.259 -0.707 0.296 v 0.423 h -0.422 v -0.434 c -0.244 -0.021 -0.457 -0.102 -0.641 -0.243 c -0.184 -0.14 -0.275 -0.387 -0.275 -0.737 v -0.155 h 0.916 v 0.193 c 0 0.212 0.01 0.344 0.029 0.395 c 0.019 0.051 0.064 0.077 0.137 0.077 c 0.063 0 0.108 -0.018 0.139 -0.054 c 0.029 -0.036 0.045 -0.089 0.045 -0.159 c 0 -0.177 -0.014 -0.304 -0.042 -0.379 c -0.03 -0.076 -0.128 -0.159 -0.296 -0.249 c -0.279 -0.15 -0.469 -0.262 -0.57 -0.332 c -0.1 -0.071 -0.188 -0.171 -0.262 -0.3 c -0.072 -0.128 -0.109 -0.274 -0.109 -0.438 c 0 -0.235 0.078 -0.42 0.232 -0.554 c 0.154 -0.133 0.387 -0.216 0.697 -0.247 v -0.401 h 0.422 v 0.401 c 0.283 0.031 0.495 0.113 0.637 0.245 c 0.139 0.132 0.211 0.314 0.211 0.547 c 0 0.032 -0.004 0.082 -0.011 0.148 h -0.915 v -0.131 c 0 -0.139 -0.012 -0.23 -0.033 -0.273 c -0.021 -0.043 -0.066 -0.064 -0.136 -0.064 c -0.055 0 -0.099 0.019 -0.126 0.055 c -0.027 0.038 -0.041 0.093 -0.041 0.167 c 0 0.124 0.027 0.21 0.086 0.26 c 0.057 0.049 0.221 0.146 0.494 0.289 c 0.232 0.12 0.393 0.213 0.477 0.277 c 0.085 0.064 0.156 0.156 0.215 0.273 c 0.058 0.118 0.087 0.265 0.087 0.441 C 26.734 14.455 26.655 14.676 26.497 14.836 z" stroke-linecap="round" />
</g>
		<g transform="matrix(1 0 0 1 -2.634000284765655 -11.834499999999998)"  >
<path style="stroke: none; stroke-width: 1; stroke-dasharray: none; stroke-linecap: butt; stroke-dashoffset: 0; stroke-linejoin: miter; stroke-miterlimit: 4; fill: rgb(0,0,0); fill-rule: nonzero; opacity: 1;"  transform=" translate(-13.365999715234345, -4.165500000000001)" d="M 13.366 7.105 c 1.623 0 2.939 -1.316 2.939 -2.94 c 0 -1.624 -1.316 -2.939 -2.939 -2.939 c -1.624 0 -2.939 1.315 -2.939 2.939 C 10.426 5.789 11.742 7.105 13.366 7.105 z M 12.605 3.036 c 0.13 -0.111 0.321 -0.18 0.579 -0.206 V 2.498 h 0.351 V 2.83 c 0.235 0.026 0.411 0.095 0.528 0.204 c 0.115 0.11 0.176 0.261 0.176 0.453 c 0 0.028 -0.004 0.069 -0.009 0.124 h -0.761 V 3.502 c 0 -0.115 -0.01 -0.191 -0.025 -0.227 c -0.02 -0.036 -0.057 -0.053 -0.113 -0.053 c -0.047 0 -0.082 0.015 -0.105 0.046 c -0.022 0.031 -0.034 0.077 -0.034 0.138 c 0 0.103 0.023 0.174 0.071 0.216 c 0.047 0.041 0.183 0.121 0.41 0.24 c 0.194 0.1 0.325 0.177 0.395 0.23 c 0.072 0.053 0.131 0.129 0.18 0.227 c 0.049 0.098 0.072 0.219 0.072 0.365 c 0 0.233 -0.065 0.416 -0.197 0.549 c -0.129 0.133 -0.324 0.215 -0.587 0.247 v 0.351 h -0.351 V 5.472 c -0.202 -0.018 -0.38 -0.084 -0.533 -0.202 c -0.15 -0.117 -0.227 -0.321 -0.227 -0.613 V 4.53 h 0.76 v 0.16 c 0 0.175 0.008 0.285 0.023 0.328 c 0.017 0.042 0.055 0.064 0.115 0.064 c 0.051 0 0.089 -0.015 0.113 -0.044 c 0.027 -0.03 0.039 -0.075 0.039 -0.133 c 0 -0.147 -0.012 -0.252 -0.036 -0.315 c -0.024 -0.063 -0.105 -0.131 -0.245 -0.206 c -0.232 -0.125 -0.39 -0.217 -0.473 -0.276 c -0.085 -0.059 -0.156 -0.142 -0.218 -0.248 c -0.06 -0.107 -0.091 -0.229 -0.091 -0.364 C 12.413 3.301 12.477 3.147 12.605 3.036 z" stroke-linecap="round" />
</g>
		<g transform="matrix(1 0 0 1 6.983499999999999 -11.4295)"  >
<path style="stroke: none; stroke-width: 1; stroke-dasharray: none; stroke-linecap: butt; stroke-dashoffset: 0; stroke-linejoin: miter; stroke-miterlimit: 4; fill: rgb(0,0,0); fill-rule: nonzero; opacity: 1;"  transform=" translate(-22.9835, -4.570500000000001)" d="M 22.985 6.708 c 1.179 0 2.136 -0.957 2.136 -2.138 c 0 -1.18 -0.957 -2.137 -2.136 -2.137 c -1.182 0 -2.139 0.957 -2.139 2.137 C 20.846 5.75 21.803 6.708 22.985 6.708 z M 22.431 3.75 c 0.093 -0.082 0.233 -0.131 0.421 -0.149 V 3.358 h 0.255 v 0.243 c 0.171 0.018 0.299 0.068 0.384 0.147 c 0.084 0.08 0.127 0.19 0.127 0.331 c 0 0.02 -0.002 0.05 -0.006 0.089 h -0.553 v -0.08 c 0 -0.084 -0.007 -0.139 -0.02 -0.164 c -0.014 -0.026 -0.041 -0.039 -0.082 -0.039 c -0.033 0 -0.06 0.011 -0.076 0.034 c -0.017 0.022 -0.025 0.056 -0.025 0.1 c 0 0.075 0.018 0.128 0.052 0.157 c 0.035 0.031 0.134 0.088 0.299 0.174 c 0.142 0.073 0.235 0.128 0.287 0.168 c 0.052 0.038 0.095 0.094 0.13 0.164 c 0.035 0.072 0.053 0.16 0.053 0.266 c 0 0.169 -0.048 0.302 -0.143 0.399 c -0.095 0.096 -0.237 0.156 -0.427 0.179 v 0.255 h -0.255 V 5.521 c -0.148 -0.013 -0.277 -0.061 -0.388 -0.146 c -0.11 -0.085 -0.166 -0.234 -0.166 -0.445 V 4.835 h 0.554 v 0.116 c 0 0.128 0.006 0.208 0.018 0.239 c 0.012 0.031 0.038 0.046 0.083 0.046 c 0.036 0 0.065 -0.011 0.083 -0.032 c 0.018 -0.022 0.026 -0.054 0.026 -0.097 c 0 -0.107 -0.009 -0.183 -0.024 -0.229 c -0.019 -0.045 -0.078 -0.095 -0.18 -0.15 c -0.168 -0.091 -0.283 -0.158 -0.344 -0.201 c -0.061 -0.043 -0.113 -0.103 -0.158 -0.181 C 22.313 4.27 22.29 4.182 22.29 4.083 C 22.29 3.942 22.336 3.83 22.431 3.75 z" stroke-linecap="round" />
</g>
		<g transform="matrix(1 0 0 1 -8.749500309694174 -3.289500000000001)"  >
<path style="stroke: none; stroke-width: 1; stroke-dasharray: none; stroke-linecap: butt; stroke-dashoffset: 0; stroke-linejoin: miter; stroke-miterlimit: 4; fill: rgb(0,0,0); fill-rule: nonzero; opacity: 1;"  transform=" translate(-7.250499690305826, -12.7105)" d="M 7.249 15.413 c 1.493 0 2.703 -1.21 2.703 -2.702 c 0 -1.493 -1.21 -2.703 -2.703 -2.703 c -1.49 0 -2.7 1.21 -2.7 2.703 C 4.548 14.203 5.758 15.413 7.249 15.413 z M 6.551 11.674 c 0.119 -0.102 0.297 -0.166 0.531 -0.189 v -0.305 h 0.322 v 0.305 c 0.217 0.023 0.379 0.086 0.485 0.187 c 0.108 0.1 0.161 0.24 0.161 0.417 c 0 0.025 -0.002 0.063 -0.007 0.113 H 7.346 v -0.1 c 0 -0.106 -0.009 -0.175 -0.025 -0.208 c -0.017 -0.033 -0.051 -0.05 -0.105 -0.05 c -0.041 0 -0.072 0.014 -0.095 0.042 c -0.021 0.028 -0.032 0.07 -0.032 0.127 c 0 0.095 0.022 0.16 0.066 0.198 c 0.043 0.038 0.168 0.111 0.377 0.22 c 0.178 0.093 0.299 0.163 0.363 0.212 c 0.064 0.049 0.119 0.119 0.164 0.208 c 0.045 0.091 0.066 0.202 0.066 0.336 c 0 0.214 -0.06 0.382 -0.18 0.505 c -0.121 0.122 -0.3 0.197 -0.541 0.226 v 0.324 H 7.083 v -0.331 c -0.186 -0.017 -0.35 -0.078 -0.489 -0.186 s -0.209 -0.296 -0.209 -0.564 v -0.117 h 0.698 v 0.146 c 0 0.162 0.009 0.263 0.022 0.302 c 0.015 0.039 0.05 0.059 0.104 0.059 c 0.048 0 0.083 -0.013 0.105 -0.041 c 0.023 -0.027 0.035 -0.068 0.035 -0.121 c 0 -0.135 -0.012 -0.232 -0.033 -0.291 c -0.021 -0.058 -0.096 -0.121 -0.226 -0.189 c -0.212 -0.114 -0.358 -0.199 -0.435 -0.254 c -0.076 -0.054 -0.143 -0.129 -0.199 -0.229 c -0.057 -0.099 -0.083 -0.21 -0.083 -0.333 C 6.375 11.917 6.432 11.776 6.551 11.674 z" stroke-linecap="round" />
</g>
		<g transform="matrix(1 0 0 1 -1.3957469566760867 9.722883217776)"  >
<path style="stroke: none; stroke-width: 1; stroke-dasharray: none; stroke-linecap: butt; stroke-dashoffset: 0; stroke-linejoin: miter; stroke-miterlimit: 4; fill: rgb(0,0,0); fill-rule: nonzero; opacity: 1;"  transform=" translate(-14.604253043323913, -25.722883217776)" d="M 19.719 21.093 c -1.572 0.948 -1.342 1.226 -3.471 1.257 c -2.128 0.032 -3.909 -0.193 -4.279 0.779 c -1.136 2.983 6.778 1.874 6.778 1.874 c -1.897 1.018 -4.997 1.48 -7.126 0.555 c -2.128 -0.926 -0.508 -3.208 -0.508 -3.208 c -1.342 -0.385 -2.035 -0.772 -3.424 -1.188 c -0.916 -0.274 -0.792 0.328 -0.602 0.771 c -0.123 -0.057 -0.245 -0.113 -0.371 -0.17 c -2.025 -0.917 -2.053 -0.002 -1.817 0.762 C 3.124 22 2.158 22.485 3.51 23.893 c 1.975 2.05 6.17 6.091 10.24 6.741 c 4.071 0.65 5.306 -1.144 7.111 -1.448 c 1.805 -0.306 5.473 0.795 5.473 0.795 v -6.659 c 0 0 -0.832 -0.679 -2.406 -1.512 C 22.356 20.977 21.292 20.144 19.719 21.093 z" stroke-linecap="round" />
</g>
		<g transform="matrix(1 0 0 1 0.9917150108631034 -3.0714325553415733)"  >
<path style="stroke: none; stroke-width: 1; stroke-dasharray: none; stroke-linecap: butt; stroke-dashoffset: 0; stroke-linejoin: miter; stroke-miterlimit: 4; fill: rgb(0,0,0); fill-rule: nonzero; opacity: 1;"  transform=" translate(-16.991715010863103, -12.928567444658427)" d="M 11.649 12.227 c 0.611 0.777 1.359 1.469 2.178 2.047 c -0.338 1.634 -0.569 3.293 -0.74 4.947 c -0.007 0.067 -0.011 0.147 -0.01 0.218 c 0.016 0.971 0.817 1.745 1.789 1.729 c 0.971 -0.017 1.745 -0.818 1.729 -1.789 L 16.59 19.22 c -0.012 -0.802 -0.029 -1.604 -0.02 -2.406 c 0.02 -1.667 0.125 -3.401 0.42 -5.092 c 2.431 -0.383 4.658 -1.412 6.619 -2.922 c 0.24 -0.187 0.305 -0.532 0.135 -0.791 c -0.179 -0.271 -0.543 -0.348 -0.815 -0.169 l -0.071 0.046 c -1.644 1.124 -3.524 1.933 -5.504 2.161 c 0.383 -1.432 0.941 -2.803 1.771 -4.035 c 0.232 -0.347 0.181 -0.821 -0.14 -1.107 c -0.35 -0.313 -0.887 -0.282 -1.199 0.067 l -0.041 0.046 c -0.865 0.964 -1.498 2.248 -2.043 3.412 c -0.637 1.352 -1.115 2.76 -1.492 4.197 c -0.624 -0.417 -1.199 -0.908 -1.688 -1.481 c -0.408 -0.478 -0.756 -1.006 -1.034 -1.57 c -0.09 -0.182 -0.169 -0.442 -0.288 -0.659 c -0.139 -0.257 -0.332 -0.451 -0.658 -0.379 c -0.873 0.188 -0.066 1.636 0.131 2.121 C 10.903 11.222 11.274 11.749 11.649 12.227 z" stroke-linecap="round" />
</g>
</g>
</g>
</svg>